<svg xmlns="http://www.w3.org/2000/svg" width="26" height="26" fill="none" xmlns:v="https://vecta.io/nano"><g filter="url(#A)"><circle cx="13" cy="12" r="10.5" stroke="#fec040" shape-rendering="crispEdges"/></g><g filter="url(#B)"><circle cx="13" cy="12" r="8" fill="#fec040"/><path d="M13 14.571a2.57 2.57 0 0 1-2.376-1.587 2.57 2.57 0 0 1 .557-2.802 2.57 2.57 0 0 1 2.802-.557A2.57 2.57 0 0 1 15.572 12c-.001.682-.272 1.335-.754 1.817s-1.136.753-1.817.754zm0-4.286c-.339 0-.671.101-.952.289s-.502.456-.631.769-.164.658-.098.99.229.638.469.878.545.403.878.469.677.032.991-.098.581-.35.769-.631.289-.613.289-.952c0-.454-.181-.89-.503-1.212s-.757-.502-1.212-.503z" fill="#fff"/><path d="M13 16.286a4.29 4.29 0 0 1-3.194-1.428l.639-.572a3.43 3.43 0 0 0 3.083 1.102c.565-.088 1.099-.316 1.554-.663a3.43 3.43 0 0 0 1.337-2.989 3.43 3.43 0 0 0-1.781-2.748A3.43 3.43 0 0 0 13 8.571v-.857c1.137 0 2.227.452 3.031 1.255s1.255 1.894 1.255 3.03-.451 2.227-1.255 3.031-1.894 1.255-3.03 1.255z" fill="#fff"/><path d="M13 18a6 6 0 0 1-5.543-3.704 6 6 0 0 1 1.301-6.539 6 6 0 0 1 6.539-1.301A6 6 0 0 1 19 12c-.002 1.591-.634 3.116-1.759 4.241S14.591 17.998 13 18zm0-11.143c-1.017 0-2.011.302-2.857.867s-1.505 1.368-1.894 2.308-.491 1.974-.293 2.971.688 1.914 1.407 2.633a5.14 5.14 0 0 0 2.633 1.408c.998.198 2.032.097 2.971-.293s1.743-1.048 2.308-1.894.867-1.84.867-2.857A5.15 5.15 0 0 0 13 6.857z" fill="#fff"/></g><defs><filter id="A" x="0" y="0" width="26" height="26" filterUnits="userSpaceOnUse" color-interpolation-filters="sRGB"><feFlood flood-opacity="0" result="A"/><feColorMatrix in="SourceAlpha" values="0 0 0 0 0 0 0 0 0 0 0 0 0 0 0 0 0 0 127 0" result="B"/><feOffset dy="1"/><feGaussianBlur stdDeviation="1"/><feComposite in2="B" operator="out"/><feColorMatrix values="0 0 0 0 0 0 0 0 0 0 0 0 0 0 0 0 0 0 0.3 0"/><feBlend in2="A"/><feBlend in="SourceGraphic"/></filter><filter id="B" x="2" y="4" width="22" height="22" filterUnits="userSpaceOnUse" color-interpolation-filters="sRGB"><feFlood flood-opacity="0" result="A"/><feColorMatrix in="SourceAlpha" values="0 0 0 0 0 0 0 0 0 0 0 0 0 0 0 0 0 0 127 0" result="B"/><feOffset dy="3"/><feGaussianBlur stdDeviation="1.5"/><feComposite in2="B" operator="out"/><feColorMatrix values="0 0 0 0 0.400326 0 0 0 0 0.400326 0 0 0 0 0.400326 0 0 0 0.31 0"/><feBlend in2="A"/><feBlend in="SourceGraphic"/></filter></defs></svg>