<svg width="22" height="22" viewBox="0 0 22 22" fill="none" xmlns="http://www.w3.org/2000/svg">
<g filter="url(#filter0_d_75:27140)">
<circle cx="11" cy="8" r="8" fill="white"/>
<path d="M19 8C19 10.1217 18.1571 12.1566 16.6569 13.6569C15.1566 15.1571 13.1217 16 11 16C8.87827 16 6.84344 15.1571 5.34315 13.6569C3.84285 12.1566 3 10.1217 3 8C3 5.87827 3.84285 3.84344 5.34315 2.34315C6.84344 0.842855 8.87827 0 11 0C13.1217 0 15.1566 0.842855 16.6569 2.34315C18.1571 3.84344 19 5.87827 19 8ZM15.03 4.97C14.9586 4.89882 14.8735 4.84277 14.7799 4.80522C14.6863 4.76766 14.5861 4.74936 14.4853 4.75141C14.3845 4.75347 14.2851 4.77583 14.1932 4.81717C14.1012 4.85851 14.0185 4.91797 13.95 4.992L10.477 9.417L8.384 7.323C8.24183 7.19052 8.05378 7.1184 7.85948 7.12183C7.66518 7.12525 7.47979 7.20397 7.34238 7.34138C7.20497 7.47879 7.12625 7.66418 7.12283 7.85848C7.1194 8.05278 7.19152 8.24083 7.324 8.383L9.97 11.03C10.0413 11.1012 10.1262 11.1572 10.2196 11.1949C10.313 11.2325 10.413 11.2509 10.5137 11.2491C10.6144 11.2472 10.7137 11.2251 10.8057 11.184C10.8977 11.1429 10.9804 11.0837 11.049 11.01L15.041 6.02C15.1771 5.8785 15.2523 5.68928 15.2504 5.49296C15.2485 5.29664 15.1698 5.10888 15.031 4.97H15.03Z" fill="#8C7FF9"/>
</g>
<defs>
<filter id="filter0_d_75:27140" x="0" y="0" width="22" height="22" filterUnits="userSpaceOnUse" color-interpolation-filters="sRGB">
<feFlood flood-opacity="0" result="BackgroundImageFix"/>
<feColorMatrix in="SourceAlpha" type="matrix" values="0 0 0 0 0 0 0 0 0 0 0 0 0 0 0 0 0 0 127 0" result="hardAlpha"/>
<feOffset dy="3"/>
<feGaussianBlur stdDeviation="1.5"/>
<feComposite in2="hardAlpha" operator="out"/>
<feColorMatrix type="matrix" values="0 0 0 0 0.400326 0 0 0 0 0.400326 0 0 0 0 0.400326 0 0 0 0.31 0"/>
<feBlend mode="normal" in2="BackgroundImageFix" result="effect1_dropShadow_75:27140"/>
<feBlend mode="normal" in="SourceGraphic" in2="effect1_dropShadow_75:27140" result="shape"/>
</filter>
</defs>
</svg>
