<svg width="146" height="146" viewBox="0 0 146 146" fill="none" xmlns="http://www.w3.org/2000/svg">
<g clip-path="url(#clip0_605_3055)">
<path d="M128.605 25.9492V99.4961C128.605 106.124 123.233 111.496 116.605 111.496H12C5.37258 111.496 0 106.124 0 99.4961V25.9492L9.95151 17.1094H121.078L128.605 25.9492Z" fill="#ECECF1"/>
<path d="M128.605 25.9492V111.496H64.4453V17.1094H121.078L128.605 25.9492Z" fill="#DADAE0"/>
<path d="M8.83984 0H17.3945V12.832H8.83984V0Z" fill="#3E5959"/>
<path d="M34.5039 0H43.0586V12.832H34.5039V0Z" fill="#3E5959"/>
<path d="M85.832 0H94.3867V12.832H85.832V0Z" fill="#384949"/>
<path d="M60.168 0H68.7227V12.832H60.168V0Z" fill="#3E5959"/>
<path d="M111.496 0H120.051V12.832H111.496V0Z" fill="#384949"/>
<path d="M64.4453 0H68.7227V12.832H64.4453V0Z" fill="#384949"/>
<path d="M0 18.5547C0 13.0318 4.47715 8.55469 10 8.55469H118.605C124.128 8.55469 128.605 13.0318 128.605 18.5547V25.9492H0V18.5547Z" fill="#512C77"/>
<path d="M64.4453 8.55469H118.605C124.128 8.55469 128.605 13.0318 128.605 18.5547V25.9492H64.4453V8.55469Z" fill="#613383"/>
<path d="M17.3945 43.0586H34.5039V51.6133H17.3945V43.0586Z" fill="#384949"/>
<path d="M43.0586 43.0586H60.168V51.6133H43.0586V43.0586Z" fill="#384949"/>
<path d="M68.7227 43.0586H85.832V51.6133H68.7227V43.0586Z" fill="#4C7171"/>
<path d="M94.3867 43.0586H111.496V51.6133H94.3867V43.0586Z" fill="#4C7171"/>
<path d="M17.3945 60.168H34.5039V68.7227H17.3945V60.168Z" fill="#384949"/>
<path d="M43.0586 60.168H60.168V68.7227H43.0586V60.168Z" fill="#384949"/>
<path d="M17.3945 77.2773H34.5039V85.832H17.3945V77.2773Z" fill="#384949"/>
<path d="M43.0586 77.2773H60.168V85.832H43.0586V77.2773Z" fill="#384949"/>
<path d="M68.7227 60.168H85.832V68.7227H68.7227V60.168Z" fill="#4C7171"/>
<path d="M107.219 68.7227C86.0036 68.7227 68.7227 86.0025 68.7227 107.219C68.7227 128.434 86.0036 146 107.219 146C128.434 146 146 128.434 146 107.219C146 86.0025 128.434 68.7227 107.219 68.7227Z" fill="#512C77"/>
<path d="M146 107.219C146 128.434 128.434 146 107.219 146V68.7227C128.434 68.7227 146 86.0025 146 107.219Z" fill="#613383"/>
<path d="M102.941 120.051H111.496V128.605H102.941V120.051Z" fill="#f1f1f1"/>
<path d="M102.941 85.832H111.496V111.496H102.941V85.832Z" fill="#f1f1f1"/>
<path d="M107.219 85.832H111.496V111.496H107.219V85.832Z" fill="#c9c9c9"/>
<path d="M107.219 120.051H111.496V128.605H107.219V120.051Z" fill="#c9c9c9"/>
</g>
<defs>
<clipPath id="clip0_605_3055">
<rect width="146" height="146" fill="white"/>
</clipPath>
</defs>
</svg>
