<svg width="19" height="20" viewBox="0 0 19 20" fill="none" xmlns="http://www.w3.org/2000/svg">
<path d="M9.09091 20C4.03909 18.8773 0 14.1109 0 9.09091V3.63636L9.09091 0L18.1818 3.63636V9.09091C18.1818 14.1127 14.1427 18.8773 9.09091 20ZM1.81818 4.54545V9.09091C1.87013 11.1928 2.60942 13.2199 3.92289 14.8617C5.23636 16.5035 7.05164 17.6697 9.09091 18.1818C11.1302 17.6697 12.9455 16.5035 14.2589 14.8617C15.5724 13.2199 16.3117 11.1928 16.3636 9.09091V4.54545L9.09091 1.81818L1.81818 4.54545Z" fill="#8C7FF9"/>
<path d="M9.0906 9.09089C10.3458 9.09089 11.3633 8.07336 11.3633 6.81817C11.3633 5.56298 10.3458 4.54544 9.0906 4.54544C7.83541 4.54544 6.81787 5.56298 6.81787 6.81817C6.81787 8.07336 7.83541 9.09089 9.0906 9.09089Z" fill="#8C7FF9"/>
<path d="M4.54565 12.7273C4.99373 13.5438 5.65074 14.2266 6.44942 14.7059C7.2481 15.1851 8.15976 15.4434 9.09111 15.4545C10.0225 15.4434 10.9341 15.1851 11.7328 14.7059C12.5315 14.2266 13.1885 13.5438 13.6366 12.7273C13.6138 11.0036 10.5984 10 9.09111 10C7.57565 10 4.56838 11.0036 4.54565 12.7273Z" fill="#8C7FF9"/>
</svg>
