<svg width="24" height="20" viewBox="0 0 24 20" fill="none" xmlns="http://www.w3.org/2000/svg">
<path d="M12.5161 1.82586L11.5678 2.77652L10.6148 1.82354C9.63058 0.838074 8.34394 0.211673 6.9612 0.0447931C5.57845 -0.122087 4.17973 0.180222 2.98932 0.903241C1.79891 1.62626 0.885798 2.7281 0.396403 4.03206C-0.0929927 5.33602 -0.130312 6.76656 0.290429 8.09426H2.14666C1.70815 7.13885 1.61936 6.05972 1.89581 5.04549C2.17226 4.03125 2.79636 3.14643 3.65903 2.54569C4.52171 1.94495 5.56807 1.66649 6.61523 1.759C7.66238 1.85151 8.64372 2.3091 9.38771 3.05178L10.9583 4.62119C11.04 4.703 11.1372 4.76765 11.2443 4.81133C11.3514 4.85501 11.4661 4.87685 11.5817 4.87555C11.6973 4.87426 11.8115 4.84986 11.9176 4.8038C12.0236 4.75773 12.1194 4.69093 12.1992 4.60732L13.7421 3.05178C14.4866 2.30911 15.4682 1.8515 16.5157 1.75883C17.5632 1.66616 18.61 1.94432 19.4733 2.54474C20.3367 3.14517 20.9617 4.02973 21.2393 5.04401C21.517 6.05829 21.4295 7.13786 20.9924 8.09426H22.8486C23.266 6.76622 23.2259 5.33658 22.7349 4.03397C22.2439 2.73137 21.3302 1.63106 20.14 0.909006C18.9498 0.186956 17.5519 -0.115117 16.1698 0.0510976C14.7877 0.217312 13.5012 0.842211 12.5161 1.82586Z" fill="#767676"/>
<path d="M10.955 19.7463L3.34961 12.1421H5.61988C5.67887 12.1421 5.73785 12.1386 5.79568 12.134L11.5679 17.9063L17.3367 12.1409H19.7909L12.1809 19.7463C12.0183 19.9087 11.7978 20 11.5679 20C11.3381 20 11.1176 19.9087 10.955 19.7463Z" fill="#767676"/>
<path d="M8.5844 5.1035C8.51151 4.95825 8.39929 4.83639 8.26051 4.75182C8.12173 4.66725 7.96198 4.62337 7.79948 4.62518C7.63697 4.62698 7.47824 4.67441 7.34138 4.76205C7.20452 4.84968 7.09503 4.97401 7.02539 5.12085L5.07086 9.24967H0.870329C0.64028 9.24967 0.419654 9.34106 0.256985 9.50373C0.094316 9.66639 0.00292969 9.88702 0.00292969 10.1171C0.00292969 10.3471 0.094316 10.5677 0.256985 10.7304C0.419654 10.8931 0.64028 10.9845 0.870329 10.9845H5.62021C5.78448 10.9845 5.94538 10.9379 6.0842 10.8501C6.22301 10.7622 6.33403 10.6368 6.40434 10.4883L7.8315 7.47439L10.7922 13.3958C10.8588 13.5294 10.9587 13.6435 11.0822 13.7272C11.2058 13.8109 11.3489 13.8613 11.4976 13.8735C11.6463 13.8857 11.7957 13.8593 11.9312 13.7969C12.0668 13.7345 12.184 13.6382 12.2714 13.5173L15.3918 9.19647L16.6986 10.6884C16.7799 10.7816 16.8801 10.8563 16.9926 10.9075C17.1051 10.9588 17.2273 10.9854 17.3509 10.9856H22.2662C22.4962 10.9856 22.7169 10.8942 22.8795 10.7316C23.0422 10.5689 23.1336 10.3483 23.1336 10.1182C23.1336 9.88818 23.0422 9.66755 22.8795 9.50488C22.7169 9.34221 22.4962 9.25083 22.2662 9.25083H17.7441L15.9793 7.23499C15.8934 7.13685 15.7866 7.05933 15.6666 7.00819C15.5467 6.95706 15.4167 6.93362 15.2865 6.93962C15.1562 6.94562 15.029 6.98091 14.9143 7.04286C14.7996 7.10481 14.7003 7.19183 14.6238 7.29744L11.7036 11.3407L8.58556 5.10466L8.5844 5.1035Z" fill="#767676"/>
</svg>
