<svg xmlns="http://www.w3.org/2000/svg" data-name="Layer 1" viewBox="0 0 24 30" x="0px" y="0px">
<path fill="#5b5b5b" d="m16.32,7.25c-2.07,0-3.75,1.68-3.75,3.75s1.68,3.75,3.75,3.75,3.75-1.68,3.75-3.75-1.68-3.75-3.75-3.75Zm1.94,4.63c.3.3.3.77,0,1.07-.14.14-.34.22-.53.22s-.38-.08-.53-.22l-.88-.89-.89.88c-.14.15-.33.22-.53.22s-.38-.07-.53-.22c-.29-.29-.29-.76,0-1.06l.89-.88-.89-.88c-.29-.3-.29-.77,0-1.07.3-.29.77-.29,1.06,0l.89.89.88-.88c.3-.3.77-.3,1.06,0,.3.29.3.76,0,1.06l-.88.88.88.88Z"/>
<path fill="#5b5b5b" d="m19.48,5.72c-.2.29-.33.5-.46.71-.01.02-.03.05-.04.07-.78-.46-1.69-.75-2.66-.75-2.9,0-5.25,2.36-5.25,5.25,0,1.66.79,3.13,2,4.09v3.91c0,.69-.56,1.25-1.25,1.25s-1.25-.56-1.25-1.25v-4c0-.16-.05-.31-.14-.43L4.16,5.72c-.27-.38-.3-.88-.09-1.29.22-.42.64-.68,1.11-.68h13.28c.47,0,.89.26,1.11.68.21.41.18.91-.09,1.29Z"/>
</svg>