<svg width="20" height="20" viewBox="0 0 20 20" fill="none" xmlns="http://www.w3.org/2000/svg">
<path d="M10.2088 9.00221C9.50952 8.99484 8.82809 8.78077 8.25027 8.38694C7.67244 7.99311 7.22405 7.43713 6.96155 6.789C6.69905 6.14086 6.63418 5.42955 6.77509 4.74462C6.91601 4.0597 7.25642 3.43177 7.75346 2.9399C8.25051 2.44804 8.88196 2.11422 9.56833 1.98048C10.2547 1.84675 10.9653 1.91907 11.6106 2.18834C12.256 2.45761 12.8072 2.9118 13.195 3.49372C13.5828 4.07563 13.7897 4.75927 13.7897 5.45854C13.7832 6.40282 13.4026 7.30599 12.7314 7.9702C12.0602 8.63442 11.1531 9.00552 10.2088 9.00221ZM10.2088 3.15827C9.75547 3.16562 9.31446 3.30675 8.94112 3.56393C8.56778 3.82112 8.27876 4.18289 8.11036 4.6038C7.94197 5.02472 7.9017 5.48601 7.99463 5.92973C8.08755 6.37346 8.30952 6.77983 8.63265 7.09781C8.95579 7.41578 9.36568 7.63119 9.81084 7.71696C10.256 7.80274 10.7166 7.75506 11.1347 7.57992C11.5529 7.40477 11.91 7.10997 12.1611 6.73254C12.4123 6.35511 12.5463 5.91189 12.5463 5.45854C12.5398 4.84403 12.2902 4.25712 11.8522 3.82608C11.4141 3.39504 10.8233 3.15494 10.2088 3.15827Z" fill="#8C7FF9"/>
<path d="M10.2088 9.00221C9.50952 8.99484 8.82809 8.78077 8.25027 8.38694C7.67244 7.99311 7.22405 7.43713 6.96155 6.789C6.69905 6.14086 6.63418 5.42955 6.77509 4.74462C6.91601 4.0597 7.25642 3.43177 7.75346 2.9399C8.25051 2.44804 8.88196 2.11422 9.56833 1.98048C10.2547 1.84675 10.9653 1.91907 11.6106 2.18834C12.256 2.45761 12.8072 2.9118 13.195 3.49372C13.5828 4.07563 13.7897 4.75927 13.7897 5.45854C13.7832 6.40282 13.4026 7.30599 12.7314 7.9702C12.0602 8.63442 11.1531 9.00552 10.2088 9.00221ZM10.2088 3.15827C9.75547 3.16562 9.31446 3.30675 8.94112 3.56393C8.56778 3.82112 8.27876 4.18289 8.11036 4.6038C7.94197 5.02472 7.9017 5.48601 7.99463 5.92973C8.08755 6.37346 8.30952 6.77983 8.63265 7.09781C8.95579 7.41578 9.36568 7.63119 9.81084 7.71696C10.256 7.80274 10.7166 7.75506 11.1347 7.57992C11.5529 7.40477 11.91 7.10997 12.1611 6.73254C12.4123 6.35511 12.5463 5.91189 12.5463 5.45854C12.5398 4.84403 12.2902 4.25712 11.8522 3.82608C11.4141 3.39504 10.8233 3.15494 10.2088 3.15827Z" fill="#8C7FF9"/>
<path d="M12.3783 9.83524C9.62075 9.35541 6.78197 9.79215 4.29621 11.0786C4.11975 11.1766 3.97365 11.3212 3.87386 11.4967C3.77408 11.6721 3.72447 11.8716 3.73047 12.0733V14.2866C3.73047 14.4515 3.79597 14.6096 3.91256 14.7262C4.02915 14.8428 4.18728 14.9083 4.35216 14.9083C4.51705 14.9083 4.67518 14.8428 4.79177 14.7262C4.90836 14.6096 4.97386 14.4515 4.97386 14.2866V12.1542C7.2789 10.9976 9.90017 10.6306 12.4342 11.1097L12.3783 9.83524Z" fill="#8C7FF9"/>
<path d="M19.2729 12.5397H15.1076V11.6196C15.1076 11.4547 15.0421 11.2965 14.9255 11.18C14.8089 11.0634 14.6508 10.9979 14.4859 10.9979C14.321 10.9979 14.1629 11.0634 14.0463 11.18C13.9297 11.2965 13.8642 11.4547 13.8642 11.6196V12.5397H9.3258C9.16091 12.5397 9.00278 12.6052 8.88619 12.7218C8.7696 12.8383 8.7041 12.9965 8.7041 13.1614V19.3783C8.7041 19.5432 8.7696 19.7013 8.88619 19.8179C9.00278 19.9345 9.16091 20 9.3258 20H19.2729C19.4378 20 19.5959 19.9345 19.7125 19.8179C19.8291 19.7013 19.8946 19.5432 19.8946 19.3783V13.1614C19.8946 12.9965 19.8291 12.8383 19.7125 12.7218C19.5959 12.6052 19.4378 12.5397 19.2729 12.5397ZM18.6512 18.7566H9.94749V13.7831H13.8642V14.038C13.8642 14.2028 13.9297 14.361 14.0463 14.4776C14.1629 14.5942 14.321 14.6597 14.4859 14.6597C14.6508 14.6597 14.8089 14.5942 14.9255 14.4776C15.0421 14.361 15.1076 14.2028 15.1076 14.038V13.7831H18.6512V18.7566Z" fill="#8C7FF9"/>
<path d="M12.3157 15.9092H16.021V16.7796H12.3157V15.9092Z" fill="#8C7FF9"/>
<path d="M5.49579 6.47189C3.77459 6.50069 2.08324 6.92619 0.553309 7.71528C0.38692 7.80317 0.247545 7.93463 0.150087 8.0956C0.052628 8.25657 0.000750292 8.441 0 8.62918V10.5564C0 10.7213 0.0654999 10.8794 0.18209 10.996C0.298681 11.1126 0.456812 11.1781 0.621696 11.1781C0.78658 11.1781 0.94471 11.1126 1.0613 10.996C1.17789 10.8794 1.24339 10.7213 1.24339 10.5564V8.75352C2.70518 8.0259 4.32362 7.66933 5.95584 7.71528C5.74229 7.32565 5.58728 6.90669 5.49579 6.47189Z" fill="#8C7FF9"/>
<path d="M19.3415 7.70903C17.9693 6.98924 16.4613 6.56563 14.915 6.46564C14.824 6.89967 14.6711 7.31839 14.4612 7.70903C15.9179 7.74389 17.3488 8.10056 18.6514 8.75348V10.5564C18.6514 10.7213 18.7169 10.8794 18.8335 10.996C18.9501 11.1126 19.1082 11.1781 19.2731 11.1781C19.438 11.1781 19.5961 11.1126 19.7127 10.996C19.8293 10.8794 19.8948 10.7213 19.8948 10.5564V8.62914C19.8952 8.43991 19.8438 8.25417 19.7463 8.09201C19.6488 7.92984 19.5088 7.79741 19.3415 7.70903Z" fill="#8C7FF9"/>
<path d="M5.384 5.45848V5.04194C4.89698 4.97677 4.45385 4.72627 4.14687 4.3426C3.83989 3.95892 3.69272 3.47164 3.73597 2.98218C3.77923 2.49272 4.00959 2.0388 4.37911 1.71491C4.74862 1.39103 5.22881 1.22213 5.71972 1.24338C6.23033 1.24246 6.72111 1.441 7.08745 1.79669C7.41067 1.5301 7.76566 1.30457 8.14433 1.12526C7.72134 0.638882 7.16089 0.292089 6.53687 0.130592C5.91284 -0.0309049 5.25452 0.000474785 4.64869 0.220595C4.04285 0.440716 3.51793 0.839244 3.14312 1.36365C2.76831 1.88806 2.56119 2.51374 2.54907 3.15821C2.56212 3.94699 2.86875 4.70257 3.40906 5.27738C3.94938 5.85218 4.68458 6.20492 5.47104 6.26669C5.4183 6.00037 5.38918 5.72992 5.384 5.45848Z" fill="#8C7FF9"/>
<path d="M14.1559 2.49152e-05C13.7286 0.00011897 13.3057 0.0853874 12.9118 0.250845C12.5179 0.416302 12.161 0.658628 11.8618 0.963653C12.2821 1.11595 12.6795 1.32513 13.043 1.58535C13.3333 1.38388 13.6728 1.26495 14.0253 1.24125C14.3778 1.21754 14.7301 1.28996 15.0447 1.45077C15.3593 1.61157 15.6244 1.85474 15.8116 2.15435C15.9989 2.45396 16.1013 2.79877 16.108 3.15202C16.1041 3.51487 15.9975 3.86918 15.8005 4.17395C15.6036 4.47872 15.3244 4.72148 14.9952 4.87412C15.0202 5.06583 15.0326 5.25896 15.0325 5.4523C15.0308 5.7022 15.01 5.9516 14.9703 6.19833C15.6476 6.02421 16.2483 5.63108 16.6789 5.08012C17.1096 4.52917 17.346 3.85129 17.3514 3.15202C17.3432 2.31106 17.0025 1.50751 16.4038 0.916925C15.805 0.326335 14.9969 -0.0033003 14.1559 2.49152e-05Z" fill="#8C7FF9"/>
</svg>
