<svg width="30" height="20" viewBox="0 0 30 20" fill="none" xmlns="http://www.w3.org/2000/svg">
<path d="M25 17.5C26.375 17.5 27.4875 16.375 27.4875 15L27.5 2.5C27.5 1.83696 27.2366 1.20107 26.7678 0.732233C26.2989 0.263392 25.663 0 25 0H5C3.6125 0 2.5 1.1125 2.5 2.5V15C2.5 15.663 2.76339 16.2989 3.23223 16.7678C3.70107 17.2366 4.33696 17.5 5 17.5H0V20H30V17.5H25ZM5 15V2.5H25V15.0125L5 15ZM11.3713 7.44125C11.3713 6.1575 12.4163 5.11125 13.7013 5.11125C14.985 5.11125 16.0312 6.1575 16.0312 7.44125C16.0303 8.0589 15.7845 8.65097 15.3477 9.08771C14.911 9.52446 14.3189 9.77026 13.7013 9.77125C13.0836 9.77026 12.4915 9.52446 12.0548 9.08771C11.618 8.65097 11.3722 8.0589 11.3713 7.44125ZM20.1612 12.7362L17.0588 9.63375C17.4879 8.98302 17.7169 8.22076 17.7175 7.44125C17.7165 6.37616 17.2929 5.355 16.5396 4.60199C15.7864 3.84897 14.7651 3.42566 13.7 3.425C12.635 3.42599 11.6139 3.84941 10.8607 4.60235C10.1076 5.3553 9.68382 6.37626 9.6825 7.44125C9.68382 8.50635 10.1075 9.52745 10.8607 10.2806C11.6138 11.0337 12.6349 11.4574 13.7 11.4587C14.4646 11.4573 15.2126 11.236 15.855 10.8212L18.9663 13.93L20.16 12.7362H20.1612Z" fill="#767676"/>
</svg>
