<svg width="21" height="20" viewBox="0 0 21 20" fill="none" xmlns="http://www.w3.org/2000/svg">
<path d="M10.9883 0C5.46828 0 0.988281 4.48 0.988281 10C0.988281 15.52 5.46828 20 10.9883 20C16.5083 20 20.9883 15.52 20.9883 10C20.9883 4.48 16.5083 0 10.9883 0ZM14.5983 6.34C15.6683 6.34 16.5283 7.2 16.5283 8.27C16.5283 9.34 15.6683 10.2 14.5983 10.2C13.5283 10.2 12.6683 9.34 12.6683 8.27C12.6583 7.2 13.5283 6.34 14.5983 6.34ZM8.59828 4.76C9.89828 4.76 10.9583 5.82 10.9583 7.12C10.9583 8.42 9.89828 9.48 8.59828 9.48C7.29828 9.48 6.23828 8.42 6.23828 7.12C6.23828 5.81 7.28828 4.76 8.59828 4.76ZM8.59828 13.89V17.64C6.19828 16.89 4.29828 15.04 3.45828 12.68C4.50828 11.56 7.12828 10.99 8.59828 10.99C9.12828 10.99 9.79828 11.07 10.4983 11.21C8.85828 12.08 8.59828 13.23 8.59828 13.89ZM10.9883 18C10.7183 18 10.4583 17.99 10.1983 17.96V13.89C10.1983 12.47 13.1383 11.76 14.5983 11.76C15.6683 11.76 17.5183 12.15 18.4383 12.91C17.2683 15.88 14.3783 18 10.9883 18Z" fill="#767676"/>
</svg>
